# xmcd CD database file
#
# Track frame offsets:
#	150
#	14470
#	30138
#	49070
#	65581
#	92848
#	107515
#	122627
#	143338
#	163228
#	185716
#	212619
#
# Disc length: 2837 seconds
#
# Revision: 1
# Processed by: cddbd v1.5.1PL0 Copyright (c) Steve Scherf et al.
# Submitted via: CDex 1.51
#
DISCID=9c0b130c
DTITLE=Wolfsheim - Spectators
DYEAR=2000
DGENRE=New Age
TTITLE0=It's Hurting For The First Time
TTITLE1=Künstliche Welten
TTITLE2=Touch
TTITLE3=Blind
TTITLE4=Once In A Lifetime Maxi
TTITLE5=Sleep Somehow
TTITLE6=For You
TTITLE7=Read The Lines
TTITLE8=I Don't love You Anymore
TTITLE9=Heroin She Said
TTITLE10=E
TTITLE11=Zusatz (Daten)
EXTD=YEAR: 2000
EXTT0=
EXTT1=
EXTT2=
EXTT3=
EXTT4=
EXTT5=
EXTT6=
EXTT7=
EXTT8=
EXTT9=
EXTT10=
EXTT11=
PLAYORDER=
